<?xml version="1.0" standalone="no"?>
<!DOCTYPE svg PUBLIC "-//W3C//DTD SVG 20010904//EN"
 "http://www.w3.org/TR/2001/REC-SVG-20010904/DTD/svg10.dtd">
<svg version="1.0" xmlns="http://www.w3.org/2000/svg"
 width="453.000000pt" height="453.000000pt" viewBox="0 0 453.000000 453.000000"
 preserveAspectRatio="xMidYMid meet">
<metadata>
Created by potrace 1.11, written by Peter Selinger 2001-2013
</metadata>
<g transform="translate(0.000000,453.000000) scale(0.100000,-0.100000)"
fill="#000000" stroke="none">
<path d="M2110 4500 c-101 -11 -300 -71 -300 -91 0 -5 -6 -9 -14 -9 -20 0
-134 -66 -262 -152 -60 -40 -127 -81 -149 -92 -22 -10 -59 -31 -83 -47 -24
-16 -48 -27 -53 -23 -5 3 -8 0 -7 -8 2 -7 -5 -13 -14 -13 -9 0 -20 -4 -25 -9
-5 -5 -2 -6 6 -1 8 5 -7 -15 -34 -43 -27 -28 -53 -48 -58 -45 -6 3 -7 1 -4 -4
4 -6 0 -17 -9 -24 -8 -7 -22 -28 -29 -46 -8 -19 -19 -32 -25 -28 -5 3 -7 0 -4
-8 3 -8 0 -18 -7 -23 -8 -5 -10 -3 -4 7 8 12 6 12 -9 0 -12 -10 -14 -16 -5
-21 6 -4 7 -9 2 -11 -5 -2 -19 -21 -32 -41 -12 -21 -27 -38 -32 -38 -6 0 -8
-4 -4 -10 3 -5 -5 -20 -17 -32 -13 -13 -22 -25 -21 -28 1 -3 -8 -17 -19 -30
-11 -14 -16 -19 -12 -11 5 9 3 12 -5 7 -6 -4 -9 -12 -6 -17 4 -5 -5 -20 -18
-33 -14 -14 -23 -27 -20 -30 3 -2 -5 -9 -16 -16 -12 -6 -19 -15 -16 -20 3 -5
1 -11 -5 -15 -6 -4 -8 -11 -5 -16 4 -5 2 -9 -4 -9 -6 0 -8 -6 -5 -13 3 -8 -2
-19 -10 -26 -8 -7 -13 -18 -10 -26 3 -7 1 -16 -5 -19 -6 -4 -8 -13 -4 -21 3
-8 1 -15 -4 -15 -4 0 -14 -24 -21 -54 -7 -29 -32 -93 -56 -142 -73 -149 -77
-168 -82 -369 -4 -216 -6 -248 -18 -256 -16 -12 -7 -153 15 -250 22 -96 34
-293 17 -283 -5 3 -6 -6 -1 -23 4 -15 7 -52 6 -81 -1 -28 3 -50 7 -47 4 3 6
-5 2 -17 -3 -12 -1 -19 4 -15 9 5 14 -30 16 -105 1 -15 4 -26 7 -24 3 2 7 -14
8 -36 2 -21 10 -46 19 -55 8 -9 13 -25 11 -37 -6 -25 28 -117 35 -95 3 8 5 1
6 -16 0 -16 5 -68 11 -115 14 -105 -7 -254 -44 -310 -12 -19 -39 -64 -59 -100
-49 -87 -65 -112 -166 -270 -142 -221 -181 -301 -195 -396 -7 -46 -9 -100 -5
-121 l8 -38 2 35 2 35 8 -30 c7 -26 8 -24 9 20 2 82 26 150 82 232 172 253
229 326 364 469 178 189 240 241 322 270 73 26 220 44 193 24 -12 -9 -8 -10
18 -6 23 4 31 2 26 -5 -5 -8 11 -9 55 -4 44 5 61 4 61 -5 0 -8 14 -10 48 -6
94 11 258 16 287 8 19 -6 49 -4 83 5 29 8 57 11 62 8 6 -3 10 -1 10 5 0 6 5 8
11 4 6 -3 14 -1 18 5 5 7 56 15 127 21 90 6 146 17 229 43 61 19 139 38 175
41 69 7 76 8 321 79 85 25 187 50 225 56 103 16 206 70 319 168 27 24 54 43
58 43 5 0 34 17 65 39 32 21 97 64 145 95 93 60 200 163 270 260 23 33 56 75
72 95 145 170 233 321 271 466 22 85 26 121 26 240 1 231 -28 361 -115 530
-90 175 -188 267 -411 385 -103 55 -139 68 -319 116 -167 44 -245 43 -300 -4
-21 -18 -19 -68 3 -82 12 -8 10 -10 -7 -10 -28 0 -29 -12 -6 -51 11 -19 30
-33 53 -39 19 -5 80 -20 135 -34 213 -54 195 -58 -28 -6 -76 18 -141 30 -143
27 -9 -9 45 -105 93 -164 26 -32 81 -96 122 -143 128 -144 199 -234 230 -291
16 -30 54 -97 85 -148 31 -52 56 -101 56 -109 0 -9 -42 57 -94 146 -97 167
-126 206 -286 382 -142 156 -170 192 -230 293 -30 51 -60 92 -67 92 -6 0 -47
-47 -92 -105 -44 -58 -89 -114 -99 -125 -40 -42 -92 -123 -92 -145 0 -25 18
-60 104 -205 55 -92 207 -391 319 -625 50 -105 107 -271 106 -310 0 -14 -8 7
-19 45 -29 111 -60 184 -191 445 -100 201 -294 546 -351 623 -12 16 -22 7
-103 -90 -50 -59 -108 -128 -130 -153 -70 -78 -88 -109 -82 -139 3 -16 37 -93
76 -172 78 -163 142 -321 196 -489 21 -63 44 -127 51 -141 7 -15 10 -29 7 -33
-9 -8 -24 30 -69 167 -20 62 -54 157 -76 212 -47 121 -208 455 -220 455 -10 0
-63 -58 -173 -189 -68 -81 -86 -109 -82 -127 3 -20 2 -22 -10 -13 -8 7 -17 8
-22 3 -4 -5 -33 -44 -65 -86 -57 -75 -58 -79 -54 -128 4 -37 20 -76 67 -156
34 -59 60 -109 58 -111 -7 -6 -114 184 -127 224 -6 21 -14 44 -16 52 -6 18
-39 -11 -60 -52 -13 -25 -12 -34 11 -98 31 -87 32 -116 1 -34 -34 89 -38 96
-45 93 -4 -2 -58 -57 -120 -123 -62 -66 -125 -133 -141 -150 -15 -16 -56 -64
-90 -105 -34 -41 -88 -104 -120 -140 -82 -92 -236 -273 -294 -348 -27 -34 -51
-62 -54 -62 -2 0 0 6 5 13 5 6 32 41 59 77 27 36 94 119 149 184 55 65 123
147 151 182 83 103 195 232 268 311 27 29 46 56 43 59 -4 4 10 19 31 34 20 15
59 53 86 84 39 46 46 60 35 67 -12 7 -11 9 2 9 20 0 72 57 164 180 39 51 87
113 108 138 21 24 35 48 30 52 -10 10 -133 26 -303 40 -74 6 -180 15 -235 20
-96 8 -95 8 35 4 74 -3 187 -10 250 -15 63 -5 151 -12 195 -15 l80 -6 35 37
c41 44 45 48 129 146 36 41 74 84 85 96 10 13 17 26 13 29 -6 6 -79 22 -339
74 -140 28 -334 57 -480 71 -71 6 -128 14 -128 17 0 2 33 2 73 -2 39 -3 99 -9
132 -12 84 -7 320 -42 440 -65 174 -33 269 -49 297 -49 21 0 45 20 111 93 100
108 208 239 203 245 -3 2 -66 12 -141 23 -127 17 -308 60 -550 129 -55 16
-153 39 -217 51 -65 13 -118 27 -118 32 0 5 7 6 17 3 9 -4 70 -18 137 -31 67
-14 207 -47 311 -74 252 -65 321 -79 443 -91 129 -12 139 -8 230 102 37 45 82
97 100 114 17 18 32 34 32 36 0 2 -26 4 -58 5 -106 5 -148 22 -331 132 -185
112 -213 123 -471 198 -110 31 -184 47 -255 52 l-100 8 75 1 c92 2 323 -51
513 -117 32 -11 62 -20 65 -19 4 1 27 -11 52 -27 25 -16 61 -38 81 -49 238
-134 265 -146 347 -146 l55 0 -20 23 c-21 22 -63 99 -63 114 0 4 13 -15 29
-42 30 -52 77 -88 89 -68 4 5 17 13 28 17 67 21 53 150 -28 273 -16 23 -28 44
-28 47 0 19 -82 138 -119 174 -63 59 -229 140 -312 152 -212 29 -296 33 -419
20z m204 -133 c17 -31 17 -31 -1 -10 -10 12 -27 29 -38 37 -20 15 -20 15 1 10
11 -3 28 -20 38 -37z m56 -102 c0 -5 -5 -3 -10 5 -5 8 -10 20 -10 25 0 6 5 3
10 -5 5 -8 10 -19 10 -25z m20 -50 c0 -5 -5 -3 -10 5 -5 8 -10 20 -10 25 0 6
5 3 10 -5 5 -8 10 -19 10 -25z m27 -97 c-3 -8 -6 -5 -6 6 -1 11 2 17 5 13 3
-3 4 -12 1 -19z m432 -108 c0 -10 -3 -8 -9 5 -12 27 -12 43 0 25 5 -8 9 -22 9
-30z m20 -65 c0 -5 -4 -3 -9 5 -5 8 -9 22 -9 30 0 16 17 -16 18 -35z m-1489
-239 c8 -2 -13 -4 -47 -5 -35 0 -63 2 -63 7 0 7 76 5 110 -2z m57 -2 c-3 -3
-12 -4 -19 -1 -8 3 -5 6 6 6 11 1 17 -2 13 -5z m220 -11 c-20 -2 -52 -2 -70 0
-17 2 0 4 38 4 39 0 53 -2 32 -4z m1900 -159 c-3 -3 -12 -4 -19 -1 -8 3 -5 6
6 6 11 1 17 -2 13 -5z m-2284 -281 c-7 -2 -21 -2 -30 0 -10 3 -4 5 12 5 17 0
24 -2 18 -5z m160 0 c-24 -2 -62 -2 -85 0 -24 2 -5 4 42 4 47 0 66 -2 43 -4z
m10 -450 c-13 -2 -33 -2 -45 0 -13 2 -3 4 22 4 25 0 35 -2 23 -4z m-110 -10
c-7 -2 -21 -2 -30 0 -10 3 -4 5 12 5 17 0 24 -2 18 -5z m2431 -277 c20 -73 32
-134 28 -138 -5 -5 -12 12 -15 39 -3 26 -24 109 -46 183 -23 74 -41 141 -40
150 1 17 19 -41 73 -234z m201 186 c-3 -3 -11 0 -18 7 -9 10 -8 11 6 5 10 -3
15 -9 12 -12z m61 -24 l19 -23 -25 20 c-14 11 -27 21 -29 22 -2 2 0 3 6 3 5 0
18 -10 29 -22z m45 -35 c13 -16 12 -17 -3 -4 -17 13 -22 21 -14 21 2 0 10 -8
17 -17z m-2304 -249 c-3 -3 -12 -4 -19 -1 -8 3 -5 6 6 6 11 1 17 -2 13 -5z
m-284 -171 c-18 -2 -48 -2 -65 0 -18 2 -4 4 32 4 36 0 50 -2 33 -4z m95 -10
c-10 -2 -26 -2 -35 0 -10 3 -2 5 17 5 19 0 27 -2 18 -5z m75 -10 c-7 -2 -19
-2 -25 0 -7 3 -2 5 12 5 14 0 19 -2 13 -5z m1614 -75 c-3 -8 -6 -5 -6 6 -1 11
2 17 5 13 3 -3 4 -12 1 -19z m-1360 -20 c-3 -8 -6 -5 -6 6 -1 11 2 17 5 13 3
-3 4 -12 1 -19z m1370 -30 c-3 -7 -5 -2 -5 12 0 14 2 19 5 13 2 -7 2 -19 0
-25z m-1360 -10 c-3 -8 -6 -5 -6 6 -1 11 2 17 5 13 3 -3 4 -12 1 -19z m177
-15 c9 -18 14 -33 12 -33 -6 0 -36 55 -36 66 0 11 5 3 24 -33z m623 -25 c-3
-7 -5 -2 -5 12 0 14 2 19 5 13 2 -7 2 -19 0 -25z m570 10 c-3 -8 -6 -5 -6 6
-1 11 2 17 5 13 3 -3 4 -12 1 -19z m-1360 -10 c-3 -8 -6 -5 -6 6 -1 11 2 17 5
13 3 -3 4 -12 1 -19z m-1157 -6 c0 -4 -9 -8 -20 -9 -11 -1 -18 2 -15 8 7 11
35 12 35 1z m2527 -34 c-3 -7 -5 -2 -5 12 0 14 2 19 5 13 2 -7 2 -19 0 -25z
m-558 -53 c1 -16 -1 -17 -9 -5 -5 8 -9 31 -9 50 l1 35 8 -30 c4 -16 8 -39 9
-50z m-802 33 c-3 -7 -5 -2 -5 12 0 14 2 19 5 13 2 -7 2 -19 0 -25z m211 -23
c-3 -3 -9 2 -12 12 -6 14 -5 15 5 6 7 -7 10 -15 7 -18z m1165 5 c3 -11 1 -23
-4 -26 -5 -3 -9 6 -9 20 0 31 6 34 13 6z m-1366 -32 c-3 -7 -5 -2 -5 12 0 14
2 19 5 13 2 -7 2 -19 0 -25z m217 -4 c3 -8 2 -12 -4 -9 -6 3 -10 10 -10 16 0
14 7 11 14 -7z m583 -26 c-3 -8 -6 -5 -6 6 -1 11 2 17 5 13 3 -3 4 -12 1 -19z
m-790 -30 c-3 -7 -5 -2 -5 12 0 14 2 19 5 13 2 -7 2 -19 0 -25z m800 -20 c-3
-8 -6 -5 -6 6 -1 11 2 17 5 13 3 -3 4 -12 1 -19z m-518 -108 c0 -8 -8 5 -19
29 -11 24 -20 48 -19 55 1 15 37 -65 38 -84z m528 68 c-3 -8 -6 -5 -6 6 -1 11
2 17 5 13 3 -3 4 -12 1 -19z m-800 -30 c-3 -7 -5 -2 -5 12 0 14 2 19 5 13 2
-7 2 -19 0 -25z m810 -50 c-3 -8 -6 -5 -6 6 -1 11 2 17 5 13 3 -3 4 -12 1 -19z
m-507 -63 c0 -5 -5 -3 -10 5 -5 8 -10 20 -10 25 0 6 5 3 10 -5 5 -8 10 -19 10
-25z m-293 -42 c-2 -16 -4 -5 -4 22 0 28 2 40 4 28 2 -13 2 -35 0 -50z m815
27 c3 -16 1 -30 -4 -30 -4 0 -8 14 -8 30 0 17 2 30 4 30 2 0 6 -13 8 -30z
m-2073 -155 c0 -5 -4 -3 -9 5 -5 8 -9 22 -9 30 0 16 17 -16 18 -35z m1588 23
c-3 -8 -6 -5 -6 6 -1 11 2 17 5 13 3 -3 4 -12 1 -19z m102 -178 c-6 -5 -8 -13
-4 -20 5 -9 4 -11 -3 -6 -7 4 -12 19 -12 33 0 22 2 24 15 13 12 -10 13 -15 4
-20z m-1416 -5 c-3 -9 -8 -14 -10 -11 -3 3 -2 9 2 15 9 16 15 13 8 -4z"/>
<path d="M290 51 c0 -14 39 -57 40 -43 0 6 -9 21 -20 32 -11 11 -20 16 -20 11z"/>
</g>
</svg>
