<svg xmlns="http://www.w3.org/2000/svg" viewBox="0 0 390.2 390.3"><title>wheel-of-dhamma</title><path d="M306,328.1l20.6,36.5-1.5,1.2a29,29,0,0,0-2.8,2.8l-1.2,1.5L268.5,269.7l3-2.8Z" transform="translate(-121.2 -200.9)" fill="#345dd1"/><path d="M295,425.1l21.3-11.4-72.4,78-1.4-2.5-2.7-5.2Z" transform="translate(-121.2 -200.9)" fill="#ccc"/><path d="M427.8,376.7h10.6l-66.1,9.2-0.3-1.4h0l52.4-7.2Z" transform="translate(-121.2 -200.9)" fill="#ccc"/><path d="M311,395.5h1.9l-92.3,18c-0.1-.8-0.1-1.5-0.2-2.2L294.2,397l8.4-1.6H311Z" transform="translate(-121.2 -200.9)" fill="#ccc"/><path d="M221,375.8l91.9,19.7H302.6l-8.4-1.8L220.8,378l0.2-2.2h0Z" transform="translate(-121.2 -200.9)" fill="#ccc"/><path d="M354.1,430.5l46.1,81-10.5-1.4-1.5-2.7L360.8,460l-7.9-29.1h0l1.1-.4h0Z" transform="translate(-121.2 -200.9)" fill="#ccc"/><path d="M362.4,389.9a15.4,15.4,0,0,1-8.6,20.2,15.7,15.7,0,0,1-5.7,1h0a8.9,8.9,0,0,1-4.3-1.2,12.3,12.3,0,0,1-4.7-5.3,19.6,19.6,0,0,1-2-8.7,20,20,0,0,1,1.9-8.7,12.8,12.8,0,0,1,4.6-5.4,9,9,0,0,1,4.7-1.4h0A15.4,15.4,0,0,1,362.4,389.9Z" transform="translate(-121.2 -200.9)" fill="#d3aa00"/><polygon points="231.9 45.9 218.4 159.4 218.4 159.4 213.6 112.5 221.3 49.2 221.5 47.6 231.9 45.9" fill="#ccc"/><polygon points="247.8 60.7 258.3 59.2 225.5 159.1 225.1 159.2 228.8 118.1 247.1 63 247.8 60.7" fill="#ccc"/><path d="M410.6,469.6l9.6,10.9-0.4.9-0.9,1.8-0.5.9-56.7-58.4a30.3,30.3,0,0,0,4.8-5.8l3.4,3.9Z" transform="translate(-121.2 -200.9)" fill="#345dd1"/><path d="M391.6,282.6l10.5-1.2-47.5,79.9-1.1-.4h0L362,332l28-46.7Z" transform="translate(-121.2 -200.9)" fill="#ccc"/><path d="M302.5,203.4a104,104,0,0,1,54,2.3A118.3,118.3,0,0,1,386.4,220a142.7,142.7,0,0,1,25.3,21.5,177.9,177.9,0,0,1,25.9,35.9A224.1,224.1,0,0,1,458,328.9a264.4,264.4,0,0,1,.1,131.8,228.3,228.3,0,0,1-20.2,51.6,183.3,183.3,0,0,1-25.5,36.1,147.3,147.3,0,0,1-25,21.9,121.5,121.5,0,0,1-29.6,15,106.7,106.7,0,0,1-32.7,5.7,105,105,0,0,1-27.1-3.2l-5.7-1.6A118.5,118.5,0,0,1,262.3,572,142.7,142.7,0,0,1,237,550.5a178.3,178.3,0,0,1-25.9-35.9,224.1,224.1,0,0,1-20.4-51.5,264.3,264.3,0,0,1-.1-131.8,228.1,228.1,0,0,1,20.2-51.6,182.7,182.7,0,0,1,25.5-36.1,146.6,146.6,0,0,1,25-21.9,121.3,121.3,0,0,1,29.6-15A109.6,109.6,0,0,1,302.5,203.4Zm28.3,39a82.8,82.8,0,0,0-21,3.1l-4.6,1.4-6.4,2.5-3.4,1.5A96.6,96.6,0,0,0,286,256l-4.1,2.7a111,111,0,0,0-10.4,8.2l-3,2.8c-2.1,2-4.2,4.1-6.2,6.3l-0.9,1a138.1,138.1,0,0,0-13,17.2l-2.4,3.9q-1.9,3.1-3.6,6.2l-0.7,1.3a172.3,172.3,0,0,0-10.4,23.9l-1.6,4.8q-0.9,2.8-1.7,5.7c-0.5,1.6-.9,3.2-1.3,4.9a202,202,0,0,0-4.9,25.5q-0.3,2.6-.6,5.3l-0.2,2.2c-0.6,6.3-.8,12.5-0.8,18.8s0.2,9.6.5,14.4c0,0.7.1,1.5,0.2,2.2s0.3,3.5.5,5.3a200.5,200.5,0,0,0,5.4,29.9l0.2,0.6c0.5,1.9,1.1,3.9,1.6,5.8l1.5,4.8a172.9,172.9,0,0,0,9.9,24.2l2.7,5.2,1.4,2.5,2.4,4A138.4,138.4,0,0,0,259,513.2l3.8,4.2,3.2,3.3h0l3,2.9a107.2,107.2,0,0,0,13.7,10.8l0.7,0.4a97.3,97.3,0,0,0,9.3,5.3l3.3,1.6a86.7,86.7,0,0,0,10.3,3.9l0.7,0.2a82.7,82.7,0,0,0,25.1,3.6,83.5,83.5,0,0,0,25.7-4.5,95.2,95.2,0,0,0,23.2-11.9,115.2,115.2,0,0,0,19.6-17.3,144,144,0,0,0,20-28.5,179.8,179.8,0,0,0,15.8-40.6,208.7,208.7,0,0,0,0-103.6,176.6,176.6,0,0,0-16-40.5A140.1,140.1,0,0,0,400,274.4a112,112,0,0,0-19.9-16.9,92.8,92.8,0,0,0-23.5-11.3A82.8,82.8,0,0,0,330.8,242.4Z" transform="translate(-121.2 -200.9)" fill="#345dd1"/><path d="M421.6,342l10.6-.5-63.7,33.3-1.4-2.4H367l3.5-3.8,48-24.9Z" transform="translate(-121.2 -200.9)" fill="#ccc"/><path d="M420.4,310l0.9,1.8,0.4,0.9-9.8,10.7-41.3,45-3.5,3.8a30.9,30.9,0,0,0-4.7-5.9l57.6-57.2Z" transform="translate(-121.2 -200.9)" fill="#345dd1"/><path d="M424.9,383.6l13.8-2.8q0-.5,0-1c0-.7-0.1-1.4-0.2-2.1v-1H427.8l-3.4.5q-0.3-3.1-.6-6.1-0.7-6.1-1.8-12.1-0.5-3-1.2-6l12.4-7.4-0.2-1-0.5-2-0.3-1-10.6.5-3,1.6-1.4-5.1q-1.5-5.1-3.3-10.1l-1.9-5,9.8-10.7-0.4-.9-0.9-1.8-0.5-.9-10.6.9-2.4,2.4-2.1-4.1q-2.1-4.1-4.5-8l-2.4-3.9,6.5-12-0.6-.8-1.2-1.5-0.6-.7-10.5,1.2-1.6,2.6-2.6-3.1q-2.6-3.1-5.4-6l-2.9-2.9,3.2-11.1-0.7-.6-1.4-1.1-0.7-.5L369,261.5l-0.8,2.4-3-2.2q-3.1-2.1-6.3-4l-3.3-1.8,0.7-8-0.8-.3L354,247l-0.8-.2-10.4,1.7-0.2,1.6-3.5-1.1q-3.6-1.1-7.2-1.8l-3.6-.7h0l-0.3-3.3h-3.4L314,244.9v0.4h-4.2a81.6,81.6,0,0,1,46.8.7,92.8,92.8,0,0,1,23.5,11.3A112,112,0,0,1,400,274.4a140.1,140.1,0,0,1,20.3,28.3,176.6,176.6,0,0,1,16,40.5,208.7,208.7,0,0,1,0,103.6,179.8,179.8,0,0,1-15.8,40.6,144,144,0,0,1-20,28.5,115.2,115.2,0,0,1-19.6,17.3,95.2,95.2,0,0,1-23.2,11.9,83.5,83.5,0,0,1-25.7,4.5,82.7,82.7,0,0,1-25.1-3.6h0.6l2.6,0.2h1.3v0.4l10.4,2H325l0.4-3.4,3.7-.6q3.7-.7,7.2-1.7l3.6-1.1,0.2,1.6,10.4,1.9,0.8-.2,1.6-.5,0.8-.3-0.6-8,3.3-1.8q3.3-1.9,6.4-3.9l3.1-2.1,0.7,2.4,10.5,1.7,0.8-.5,1.4-1,0.7-.6-3-11.2,2.9-2.8q2.9-2.9,5.6-5.9l2.6-3.1,1.5,2.7,10.5,1.4,0.6-.7,1.2-1.5,0.6-.8-6.3-12.2,2.5-3.9q2.4-3.9,4.6-8l2.1-4.1,2.4,2.4,10.6,1.1,0.5-.9,0.9-1.8,0.4-.9-9.6-10.9,2-4.9q1.9-5,3.5-10l1.5-5.1,3,1.6,10.6,0.7,0.3-1,0.6-2,0.2-1L420,440.2q0.7-3,1.3-6,1.2-6,2-12.1,0.4-3.1.7-6.1l3.4,0.5,10.6,0.3v-1c0.1-.7.1-1.4,0.2-2.1v-1l-13.8-3.1q0.1-1.8.2-3.7,0.2-3.7.3-7.4c0-1.2,0-2.5,0-3.7s0-1.9,0-2.8-0.1-3.7-.2-5.6S424.9,384.5,424.9,383.6Z" transform="translate(-121.2 -200.9)" fill="#d3aa00"/><path d="M420,440.2l12.3,7.7-0.2,1-0.6,2-0.3,1-63.1-34.5a41.4,41.4,0,0,0,3.1-7.5Z" transform="translate(-121.2 -200.9)" fill="#345dd1"/><path d="M438.5,377.6c0.1,0.7.1,1.4,0.2,2.1s0,0.7,0,1l-13.8,2.8-51.6,10.6a49.2,49.2,0,0,0-1-8.4l66.1-9.2v1Z" transform="translate(-121.2 -200.9)" fill="#345dd1"/><path d="M432.4,342.5l0.5,2,0.2,1-12.4,7.4-49.3,29.5a41,41,0,0,0-3-7.5l63.7-33.3Z" transform="translate(-121.2 -200.9)" fill="#345dd1"/><path d="M324.4,425.5l1.5,1.3-21.3,36.2L269,523.6l-3-2.9h0l54.5-99.6,1.2,1.5A27.4,27.4,0,0,0,324.4,425.5Z" transform="translate(-121.2 -200.9)" fill="#345dd1"/><path d="M295.3,250.9l31.2,113.6L306,328.1,286,256A96.6,96.6,0,0,1,295.3,250.9Z" transform="translate(-121.2 -200.9)" fill="#ccc"/><path d="M285.4,207.2l17.1-3.8h0a109.6,109.6,0,0,0-11.5,3.2,121.3,121.3,0,0,0-29.6,15,146.6,146.6,0,0,0-25,21.9,182.7,182.7,0,0,0-25.5,36.1,228.1,228.1,0,0,0-20.2,51.6,264.3,264.3,0,0,0,.1,131.8,224.1,224.1,0,0,0,20.4,51.5A178.3,178.3,0,0,0,237,550.5,142.7,142.7,0,0,0,262.3,572a118.5,118.5,0,0,0,29.9,14.3l5.7,1.6h0l-16.2-4h-0.3a114.2,114.2,0,0,1-24.6-9.2,130.2,130.2,0,0,1-25.1-16.8A155.3,155.3,0,0,1,210.8,536a186.6,186.6,0,0,1-21.4-34.1,225.1,225.1,0,0,1-16.8-47.5,255.5,255.5,0,0,1,1.2-119.9,224.6,224.6,0,0,1,17.7-47.2,186.2,186.2,0,0,1,22-33.7A155,155,0,0,1,235,232.3,130.1,130.1,0,0,1,260.4,216a114.1,114.1,0,0,1,24.9-8.8h0.1Z" transform="translate(-121.2 -200.9)" fill="#d3aa00"/><path d="M319.2,316.5l13.7,44.7-1.7.6a22.5,22.5,0,0,0-3.2,1.7l-1.5,1L295.3,250.9l3.4-1.5Z" transform="translate(-121.2 -200.9)" fill="#345dd1"/><path d="M368.1,417.3l63.1,34.5-10.6-.7-3-1.6L370,423.7l-3.4-3.9,0.6-.9Z" transform="translate(-121.2 -200.9)" fill="#ccc"/><path d="M304.7,462.9l21.3-36.2L292.6,540.2a97.3,97.3,0,0,1-9.3-5.3Z" transform="translate(-121.2 -200.9)" fill="#ccc"/><polygon points="224.9 230.8 255.9 331.7 245.4 330 244.7 327.6 227.4 272 224.5 230.8 224.9 230.8" fill="#ccc"/><path d="M409.4,310l10.6-.9-57.6,57.2-1.5-1.4h0l8.3-15.4h0L407,312.4h0Z" transform="translate(-121.2 -200.9)" fill="#ccc"/><path d="M245.9,298.2l70.8,79.2-21.1-11.8-54-59.9,0.7-1.3Q244,301.3,245.9,298.2Z" transform="translate(-121.2 -200.9)" fill="#ccc"/><path d="M297.7,345.7L321,370.1l-1.2,1.7a35.3,35.3,0,0,0-2.2,3.7l-0.9,1.9-70.8-79.2,2.4-3.9Z" transform="translate(-121.2 -200.9)" fill="#345dd1"/><path d="M424.6,409.5l13.8,3.1v1c-0.1.7-.1,1.4-0.2,2.1v1l-65.9-10.5a48.6,48.6,0,0,0,1.1-8.4Z" transform="translate(-121.2 -200.9)" fill="#345dd1"/><path d="M341.6,430.8a19.1,19.1,0,0,0,4.5.8h-0.4l-6.7-.4h-1.7a18.8,18.8,0,0,1-3.4-.5l-1.6-.5-1.7-.7a22.3,22.3,0,0,1-3.1-1.7l-1.5-1-1.5-1.3a27.4,27.4,0,0,1-2.7-2.8l-1.2-1.5-1.2-1.8a36.9,36.9,0,0,1-2.1-3.7l-0.9-2-0.8-2.1a43,43,0,0,1-1.3-4.4c-0.2-.7-0.3-1.5-0.5-2.2s-0.3-1.6-.4-2.3-0.4-3.1-.4-4.7,0-1.6,0-2.4,0-1.6.1-2.4,0.3-3.1.5-4.7,0.3-1.6.4-2.3l0.5-2.2a43.9,43.9,0,0,1,1.4-4.4l0.9-2.1,0.9-1.9a35.3,35.3,0,0,1,2.2-3.7l1.2-1.7,1.2-1.5a29,29,0,0,1,2.8-2.8l1.5-1.2,1.5-1a22.5,22.5,0,0,1,3.2-1.7l1.7-.6,1.6-.5a18.7,18.7,0,0,1,3.4-.5h1.7l6.7-.2h-0.9a21.3,21.3,0,0,0-9.4,3.7,29,29,0,0,0-8.1,8.9,41.6,41.6,0,0,0-4.6,11.2,49.3,49.3,0,0,0,0,24.1,40.4,40.4,0,0,0,4.7,11.2,29.9,29.9,0,0,0,6.6,7.7A22,22,0,0,0,341.6,430.8Z" transform="translate(-121.2 -200.9)" fill="#d3aa00"/><path d="M380.3,260.5l1.4,1.1,0.7,0.6-3.2,11.1L362,332l-8.5,28.9h-0.2a19,19,0,0,0-6.6-.9h0l32.8-100Z" transform="translate(-121.2 -200.9)" fill="#345dd1"/><path d="M313.4,402.6c0.1,0.8.2,1.6,0.4,2.3l-14.5,2.2-3.6.5-74.6,11.1h0q-0.3-2.6-.5-5.3l92.3-18c0,0.8,0,1.6,0,2.4S313.1,401,313.4,402.6Z" transform="translate(-121.2 -200.9)" fill="#345dd1"/><path d="M319.3,419.4l1.2,1.8-23.8,23.9h0l-50.4,50.6-2.4-4,72.4-78,0.9,2A36.9,36.9,0,0,0,319.3,419.4Z" transform="translate(-121.2 -200.9)" fill="#345dd1"/><path d="M299.3,407.1l14.5-2.2L228.3,455c-0.6-1.9-1.1-3.8-1.6-5.8L296.1,409Z" transform="translate(-121.2 -200.9)" fill="#ccc"/><path d="M361.8,425.6L418.4,484l-10.6-1.1-2.4-2.4h0l-37.3-38-8-15.5Z" transform="translate(-121.2 -200.9)" fill="#ccc"/><path d="M334.9,313.3l4.7,46.9h-1.7a18.7,18.7,0,0,0-3.4.5l-1.6.5-8.5-118.1h3.4l0.3,3.3Z" transform="translate(-121.2 -200.9)" fill="#345dd1"/><path d="M332.2,430.2l-14.5,44.6-21.8,67-3.3-1.6,33.4-113.4,1.5,1a22.3,22.3,0,0,0,3.1,1.7Z" transform="translate(-121.2 -200.9)" fill="#345dd1"/><path d="M268.5,269.7L321,370.1l-23.3-24.3-36.3-68.7,0.9-1C264.3,273.9,266.3,271.7,268.5,269.7Z" transform="translate(-121.2 -200.9)" fill="#ccc"/><path d="M299.6,383.7l14.4,2.4c-0.2.8-.3,1.5-0.4,2.3s-0.4,3.1-.5,4.7-0.1,1.6-.1,2.4L221,375.8h0q0.3-2.6.6-5.3h0l74.3,12.5Z" transform="translate(-121.2 -200.9)" fill="#345dd1"/><polygon points="217.7 230.5 229.2 344.5 218.8 342.6 218.6 341.1 212.1 277.4 217.7 230.5 217.7 230.5" fill="#ccc"/><path d="M396.2,496.4l6.3,12.2-0.6.8-1.2,1.5-0.6.7-46.1-81h0a22.8,22.8,0,0,0,5-2.6l1.2-.9,8,15.5Z" transform="translate(-121.2 -200.9)" fill="#345dd1"/><path d="M356.4,247.9l-0.7,8L350,319l-3.7,41-6.7.2,13.6-113.4L354,247l1.6,0.5Z" transform="translate(-121.2 -200.9)" fill="#345dd1"/><path d="M402.8,282.1l1.2,1.5,0.6,0.8-6.5,12-28.9,53.2h0L360.7,365l-0.3-.2a22.7,22.7,0,0,0-5.8-3.4l47.5-79.9Z" transform="translate(-121.2 -200.9)" fill="#345dd1"/><path d="M377,519.3l3,11.2-0.7.6-1.4,1-0.8.5L346.1,431.7h0a18.1,18.1,0,0,0,3.5-.1,19,19,0,0,0,3.3-.7h0l7.9,29.1Z" transform="translate(-121.2 -200.9)" fill="#345dd1"/><path d="M295.6,365.7l21.1,11.8-0.9,2.1a43.9,43.9,0,0,0-1.4,4.4l-0.5,2.2-84.4-51.6,1.6-4.8Z" transform="translate(-121.2 -200.9)" fill="#345dd1"/><path d="M353.1,536.3l0.6,8-0.8.3-1.6.5-0.8.2L338.9,431.3l6.7,0.4,2.9,41.1Z" transform="translate(-121.2 -200.9)" fill="#345dd1"/><path d="M338.9,431.3l-5.6,46.9-8,67.1-0.4,3.4h-3.4l10.7-118.3,1.6,0.5a18.8,18.8,0,0,0,3.4.5h1.7Z" transform="translate(-121.2 -200.9)" fill="#345dd1"/><path d="M315.5,411.5l0.8,2.1L295,425.1l-65.2,34.8-1.5-4.8,85.4-50.1c0.1,0.8.3,1.5,0.5,2.2A43,43,0,0,0,315.5,411.5Z" transform="translate(-121.2 -200.9)" fill="#345dd1"/><path d="M296.7,445.1l23.8-23.9L266,520.7l-3.2-3.3-3.8-4.2,37.7-68.2h0Z" transform="translate(-121.2 -200.9)" fill="#ccc"/><path d="M372.1,406.3L438,416.8l-10.6-.3-3.4-.5-52.3-8.2h0Z" transform="translate(-121.2 -200.9)" fill="#ccc"/><path d="M229.6,334.5l84.4,51.6-14.4-2.4-3.2-2-68.5-41.5Q228.6,337.3,229.6,334.5Z" transform="translate(-121.2 -200.9)" fill="#ccc"/><polygon points="211 229.4 200.3 347.7 190 345.7 190 345.3 196.5 273.9 211 229.4" fill="#ccc"/><polygon points="203.2 42.3 211.7 160.4 198 115.6 192.8 44.4 192.8 44 203.2 42.3" fill="#ccc"/><rect y="0.1" width="390.2" height="390.17" fill="none"/></svg>