<?xml version="1.0" encoding="UTF-8" standalone="no"?>
<!DOCTYPE svg PUBLIC "-//W3C//DTD SVG 1.1//EN" "http://www.w3.org/Graphics/SVG/1.1/DTD/svg11.dtd">
<svg width="100%" height="100%" viewBox="0 0 375 1194" version="1.1" xmlns="http://www.w3.org/2000/svg" xmlns:xlink="http://www.w3.org/1999/xlink" xml:space="preserve" style="fill-rule:evenodd;clip-rule:evenodd;stroke-linejoin:round;stroke-miterlimit:1.41421;">
    <g transform="matrix(1,0,0,1,0,-0.340598)">
        <g id="iPhone-6" transform="matrix(1,0,0,1.7892,-452.5,-118.642)">
            <rect x="452.5" y="66.5" width="375" height="667" style="fill:white;"/>
            <clipPath id="_clip1">
                <rect x="452.5" y="66.5" width="375" height="667"/>
            </clipPath>
            <g clip-path="url(#_clip1)">
                <g transform="matrix(1,0,0,0.558907,460.5,248.335)">
                    <g>
                        <text x="17.2px" y="109.481px" style="font-family:'WorkSans-Light', 'Work Sans';font-weight:300;font-size:18px;fill:rgb(81,81,81);">Vipassana, <tspan x="110.8px " y="109.481px ">w</tspan>hich means <tspan x="228.898px " y="109.481px ">t</tspan>o see <tspan x="286.426px " y="109.481px ">t</tspan>hings</text>
                        <text x="17.2px" y="135.481px" style="font-family:'WorkSans-Light', 'Work Sans';font-weight:300;font-size:18px;fill:rgb(81,81,81);">as <tspan x="41.338px " y="135.481px ">t</tspan>he<tspan x="68.59px 77.32px 82.954px 89.326px " y="135.481px 135.481px 135.481px 135.481px ">y re</tspan>all<tspan x="118.63px 127.36px " y="135.481px 135.481px ">y </tspan>ar<tspan x="149.14px " y="135.481px ">e</tspan>, is one o<tspan x="235.072px 240.868px " y="135.481px 135.481px ">f </tspan>India<tspan x="285.994px 289.144px " y="135.481px 135.481px ">&apos;s</tspan></text>
                        <text x="17.2px" y="161.481px" style="font-family:'WorkSans-Light', 'Work Sans';font-weight:300;font-size:18px;fill:rgb(81,81,81);">most ancien<tspan x="121.582px 128.278px 133.552px " y="161.481px 161.481px 161.481px ">t t</tspan>echniques o<tspan x="242.74px " y="161.481px ">f</tspan></text>
                        <text x="17.2px" y="187.481px" style="font-family:'WorkSans-Light', 'Work Sans';font-weight:300;font-size:18px;fill:rgb(81,81,81);">medita<tspan x="75.898px " y="187.481px ">t</tspan>ion. It <tspan x="134.362px 148.924px " y="187.481px 187.481px ">wa</tspan>s <tspan x="173.062px " y="187.481px ">t</tspan>augh<tspan x="220.096px " y="187.481px ">t</tspan> in I<tspan x="257.536px " y="187.481px ">n</tspan>dia<tspan x="292.708px " y="187.481px "> </tspan>mor<tspan x="332.614px " y="187.481px ">e</tspan></text>
                        <text x="17.2px" y="213.481px" style="font-family:'WorkSans-Light', 'Work Sans';font-weight:300;font-size:18px;fill:rgb(81,81,81);">than 2500 <tspan x="108.118px 117.172px " y="213.481px 213.481px ">ye</tspan>ar<tspan x="143.506px " y="213.481px ">s</tspan> ago as a<tspan x="227.35px " y="213.481px "> </tspan>univ<tspan x="267.454px 277.516px 284.014px " y="213.481px 213.481px 213.481px ">ers</tspan>al</text>
                        <text x="17.2px" y="239.481px" style="font-family:'WorkSans-Light', 'Work Sans';font-weight:300;font-size:18px;fill:rgb(81,81,81);">r<tspan x="23.572px " y="239.481px ">e</tspan>medy<tspan x="80.668px 85.96px 92.026px 102.646px 109.018px " y="239.481px 239.481px 239.481px 239.481px 239.481px "> for </tspan>univ<tspan x="149.122px 159.184px 165.682px " y="239.481px 239.481px 239.481px ">ers</tspan>al<tspan x="188.902px " y="239.481px "> </tspan>ills, i.<tspan x="234.892px " y="239.481px ">e</tspan>., an <tspan x="284.032px 295.282px 301.798px " y="239.481px 239.481px 239.481px ">Art</tspan> o<tspan x="324.568px " y="239.481px ">f</tspan></text>
                        <text x="17.2px" y="265.481px" style="font-family:'WorkSans-Light', 'Work Sans';font-weight:300;font-size:18px;fill:rgb(81,81,81);">Living. <tspan x="73.918px 82.27px 92.89px 98.164px " y="265.481px 265.481px 265.481px 265.481px ">To t</tspan>hose <tspan x="150.724px " y="265.481px ">w</tspan>ho ar<tspan x="208.648px " y="265.481px ">e</tspan> no<tspan x="245.548px 252.244px 257.536px 263.458px " y="265.481px 265.481px 265.481px 265.481px ">t fa</tspan>miliar</text>
                        <text x="17.2px" y="291.481px" style="font-family:'WorkSans-Light', 'Work Sans';font-weight:300;font-size:18px;fill:rgb(81,81,81);">with <tspan x="58.6px " y="291.481px ">V</tspan>ipassana<tspan x="142.552px 148.186px 162.838px " y="291.481px 291.481px 291.481px "> Me</tspan>dita<tspan x="204.256px " y="291.481px ">t</tspan>ion <tspan x="241.786px 256.312px " y="291.481px 291.481px ">we</tspan></text>
                        <text x="17.2px" y="317.481px" style="font-family:'WorkSans-Light', 'Work Sans';font-weight:300;font-size:18px;fill:rgb(81,81,81);">r<tspan x="23.572px " y="317.481px ">e</tspan>commend <tspan x="125.596px " y="317.481px ">v</tspan>isiting <tspan x="188.182px " y="317.481px ">t</tspan>he In<tspan x="236.548px " y="317.481px ">t</tspan>erna<tspan x="280.45px " y="317.481px ">t</tspan>ional</text>
                        <text x="17.2px" y="343.481px" style="font-family:'WorkSans-Light', 'Work Sans';font-weight:300;font-size:18px;fill:rgb(81,81,81);">Vipassana<tspan x="101.152px 106.39px 120.916px " y="343.481px 343.481px 343.481px "> we</tspan>bsite <tspan x="177.292px 183.358px 193.978px 200.35px " y="343.481px 343.481px 343.481px 343.481px ">for </tspan>an in<tspan x="246.808px 253.594px 259.966px " y="343.481px 343.481px 343.481px ">tro</tspan>duction.</text>
                        <text x="17.2px" y="369.481px" style="font-family:'WorkSans-Light', 'Work Sans';font-weight:300;font-size:18px;fill:rgb(81,81,81);">A<tspan x="28.288px " y="369.481px ">d</tspan>ditionall<tspan x="105.868px 114.598px 119.782px 128.836px " y="369.481px 369.481px 369.481px 369.481px ">y yo</tspan>u ma<tspan x="182.404px 191.134px " y="369.481px 369.481px ">y </tspan>be in<tspan x="238.078px " y="369.481px ">t</tspan>er<tspan x="261.298px " y="369.481px ">e</tspan>sted in</text>
                        <text x="17.2px" y="395.481px" style="font-family:'WorkSans-Light', 'Work Sans';font-weight:300;font-size:18px;fill:rgb(81,81,81);">our<tspan x="44.866px " y="395.481px "> </tspan>ans<tspan x="79.768px 94.294px 104.356px 110.854px 119.944px 125.218px " y="395.481px 395.481px 395.481px 395.481px 395.481px 395.481px ">wers t</tspan>o commonl<tspan x="229.168px 237.898px " y="395.481px 395.481px ">y </tspan>ask<tspan x="271.54px " y="395.481px ">e</tspan>d</text>
                        <text x="17.2px" y="421.481px" style="font-family:'WorkSans-Light', 'Work Sans';font-weight:300;font-size:18px;fill:rgb(81,81,81);">questions.</text>
                    </g>
                </g>
                <g transform="matrix(1,0,0,0.558907,460.5,492.646)">
                    <g>
                        <text x="17.2px" y="108.341px" style="font-family:'Roboto-Regular', 'Roboto';font-size:16px;fill:rgb(102,102,102);">Vipassana Meditation as taught by S. N.</text>
                        <text x="17.2px" y="136.341px" style="font-family:'Roboto-Regular', 'Roboto';font-size:16px;fill:rgb(102,102,102);">Goenka was intr<tspan x="131.434px " y="136.341px ">o</tspan>duced t<tspan x="193.309px " y="136.341px ">o</tspan> Southeast</text>
                        <text x="17.2px" y="164.341px" style="font-family:'Roboto-Regular', 'Roboto';font-size:16px;fill:rgb(102,102,102);">Michigan by his students in 2002. Meditation</text>
                        <text x="17.2px" y="192.341px" style="font-family:'Roboto-Regular', 'Roboto';font-size:16px;fill:rgb(102,102,102);">courses pr<tspan x="92.106px 101.114px " y="192.341px 192.341px ">ov</tspan>ide a suppor<tspan x="196.825px " y="192.341px ">t</tspan>iv<tspan x="213.583px " y="192.341px ">e</tspan> atmospher<tspan x="302.88px " y="192.341px ">e</tspan></text>
                        <text x="17.2px" y="220.341px" style="font-family:'Roboto-Regular', 'Roboto';font-size:16px;fill:rgb(102,102,102);">wher<tspan x="51.778px " y="220.341px ">e</tspan> one can learn the pr<tspan x="204.294px " y="220.341px ">a</tspan>ctice of</text>
                        <text x="17.2px" y="248.341px" style="font-family:'Roboto-Regular', 'Roboto';font-size:16px;fill:rgb(102,102,102);">Vipassana meditation. <tspan x="179.895px " y="248.341px ">T</tspan>his technique,</text>
                        <text x="17.2px" y="276.341px" style="font-family:'Roboto-Regular', 'Roboto';font-size:16px;fill:rgb(102,102,102);">disco<tspan x="55.739px 63.387px 71.864px 77.13px " y="276.341px 276.341px 276.341px 276.341px ">vere</tspan>d by Buddha twenty-ﬁv<tspan x="245.591px " y="276.341px ">e</tspan> centuries</text>
                        <text x="17.2px" y="304.341px" style="font-family:'Roboto-Regular', 'Roboto';font-size:16px;fill:rgb(102,102,102);">ago, uses the br<tspan x="129.583px " y="304.341px ">e</tspan>ath and one<tspan x="221.598px 223.762px " y="304.341px 304.341px ">&apos;s</tspan> own body as</text>
                        <text x="17.2px" y="332.341px" style="font-family:'Roboto-Regular', 'Roboto';font-size:16px;fill:rgb(102,102,102);">the basis for de<tspan x="127.153px 134.802px " y="332.341px 332.341px ">ve</tspan>loping concentr<tspan x="253.247px " y="332.341px ">a</tspan>tion and</text>
                        <text x="17.2px" y="360.341px" style="font-family:'Roboto-Regular', 'Roboto';font-size:16px;fill:rgb(102,102,102);">insight. <tspan x="72.919px " y="360.341px ">T</tspan>he courses pr<tspan x="178.622px 187.63px " y="360.341px 360.341px ">ov</tspan>ide a unique</text>
                        <text x="17.2px" y="388.341px" style="font-family:'Roboto-Regular', 'Roboto';font-size:16px;fill:rgb(102,102,102);">oppor<tspan x="59.208px " y="388.341px ">t</tspan>unity t<tspan x="107.794px " y="388.341px ">o</tspan> dir<tspan x="139.052px " y="388.341px ">e</tspan>ct one<tspan x="191.411px 193.575px " y="388.341px 388.341px ">&apos;s</tspan> attention inwar<tspan x="311.973px " y="388.341px ">d</tspan>,</text>
                        <text x="17.2px" y="416.341px" style="font-family:'Roboto-Regular', 'Roboto';font-size:16px;fill:rgb(102,102,102);">and set about a pr<tspan x="145.341px " y="416.341px ">o</tspan>cess of inner disco<tspan x="288.348px 295.997px 304.473px 310.028px " y="416.341px 416.341px 416.341px 416.341px ">very</tspan></text>
                        <text x="17.2px" y="444.341px" style="font-family:'Roboto-Regular', 'Roboto';font-size:16px;fill:rgb(102,102,102);">thr<tspan x="36.497px " y="444.341px ">o</tspan>ugh dir<tspan x="94.364px " y="444.341px ">e</tspan>ct experience.</text>
                    </g>
                </g>
                <g transform="matrix(1,0,0,0.558907,476.5,219.525)">
                    <g id="_-Introduction-to-Vipassana-">
                        <text x="0px" y="93.341px" style="font-family:'Roboto-Light', 'Roboto';font-weight:300;font-size:28px;fill:rgb(47,44,41);">Intr<tspan x="40.975px " y="93.341px ">o</tspan>duction t<tspan x="163.885px " y="93.341px ">o</tspan> Vipassana</text>
                        <text x="0px" y="125.341px" style="font-family:'Roboto-Light', 'Roboto';font-weight:300;font-size:28px;fill:rgb(47,44,41);">Meditation</text>
                    </g>
                </g>
                <g transform="matrix(1,0,0,0.558907,476.5,465.818)">
                    <g id="_-Introduction-to-Vipassana-1">
                        <text x="0px" y="90.341px" style="font-family:'PTSerif-Caption', 'PT Serif Caption', serif;font-size:24px;fill:rgb(85,85,85);">About Michigan <tspan x="197.976px 216.48px " y="90.341px 90.341px ">Vi</tspan>passana</text>
                        <text x="0px" y="120.341px" style="font-family:'PTSerif-Caption', 'PT Serif Caption', serif;font-size:24px;fill:rgb(85,85,85);">Association</text>
                    </g>
                </g>
                <g id="background" transform="matrix(1,0,-1.29334e-17,0.558907,452.5,66.3096)">
                    <rect x="0" y="0.341" width="376" height="56" style="fill:white;"/>
                </g>
                <g transform="matrix(1,-3.8782e-18,-5.35328e-18,0.558907,446.453,187.594)">
                    <g>
                        <g transform="matrix(0.878333,0,0,1,8.42083,0)">
                            <text x="69.212px" y="42.841px" style="font-family:'PTSans-Italic', 'PT Sans', sans-serif;font-style:italic;font-size:15px;fill:rgb(162,162,162);">Vipassana Meditation as taught b<tspan x="272.845px 278.969px " y="42.841px 42.841px ">y </tspan>S.N.<tspan x="305.996px " y="42.841px "> </tspan>Goenk<tspan x="347.299px " y="42.841px ">a</tspan></text>
                        </g>
                        <g transform="matrix(0.878333,0,0,1,12.3326,0)">
                            <text x="101.364px" y="60.841px" style="font-family:'PTSans-Italic', 'PT Sans', sans-serif;font-style:italic;font-size:15px;fill:rgb(162,162,162);">in the tradition of<tspan x="208.238px " y="60.841px "> </tspan>Say<tspan x="233.401px " y="60.841px ">a</tspan>ji U Ba Khin</text>
                        </g>
                    </g>
                </g>
                <g transform="matrix(1,-3.8782e-18,-5.825e-18,0.558907,396.578,157.381)">
                    <g>
                        <text x="181.217px" y="30.901px" style="font-family:'PTSerif-Regular', 'PT Serif', sans-serif;font-size:30px;fill:rgb(98,98,98);">Michigan</text>
                        <text x="94.277px" y="64.901px" style="font-family:'PTSerif-Regular', 'PT Serif', sans-serif;font-size:30px;fill:rgb(98,98,98);">Vipassana <tspan x="236.777px 257.267px " y="64.901px 64.901px ">As</tspan>sociation</text>
                    </g>
                </g>
                <g transform="matrix(0.257922,0,0,0.144154,589.681,96.4728)">
                    <g id="XMLID_2_">
                        <g>
                            <path d="M184.8,127.5L205.4,164C204.9,164.4 204.4,164.8 203.9,165.2C202.9,166.1 202,167 201.1,168C200.7,168.5 200.3,169 199.9,169.5L147.3,69.1C148.3,68.1 149.3,67.2 150.3,66.3L184.8,127.5Z" style="fill:rgb(52,93,209);fill-rule:nonzero;"/>
                            <path d="M173.8,224.4L195.1,213L122.7,291C122.2,290.2 121.7,289.3 121.3,288.5C120.4,286.8 119.5,285.1 118.6,283.3L173.8,224.4Z" style="fill:rgb(204,204,204);fill-rule:nonzero;"/>
                            <path d="M306.6,176.1L317.2,176L251.1,185.2C251,184.7 250.9,184.3 250.8,183.8L303.2,176.6L306.6,176.1Z" style="fill:rgb(204,204,204);fill-rule:nonzero;"/>
                            <path d="M189.8,194.9L191.7,194.9L99.4,212.9C99.3,212.1 99.3,211.4 99.2,210.7L172.9,196.5L181.3,194.9L189.8,194.9Z" style="fill:rgb(204,204,204);fill-rule:nonzero;"/>
                            <path d="M99.8,175.2L191.7,194.9L189.8,194.9L185.6,194.9L181.3,194.9L173,193L99.6,177.4C99.7,176.7 99.8,175.9 99.8,175.2Z" style="fill:rgb(204,204,204);fill-rule:nonzero;"/>
                            <path d="M232.9,229.9L279,310.9L268.5,309.5L267,306.8L239.8,259.4L231.9,230.3C232.1,230.1 232.5,230 232.9,229.9Z" style="fill:rgb(204,204,204);fill-rule:nonzero;"/>
                            <path d="M241.2,189.3C242,191.2 242.4,193.2 242.4,195.2C242.4,197.2 242,199.3 241.2,201.2C240.4,203.1 239.2,204.8 237.7,206.2C236.2,207.6 234.5,208.8 232.6,209.5C230.8,210.2 228.8,210.6 226.9,210.5C225.4,210.5 223.9,210.1 222.6,209.3C220.5,208.1 219,206.2 217.9,204C216.6,201.3 215.9,198.3 215.9,195.3C215.9,192.3 216.5,189.3 217.8,186.6C218.8,184.4 220.3,182.5 222.4,181.2C223.8,180.3 225.5,179.8 227.1,179.8C229.1,179.8 231.1,180.2 232.9,180.9C234.8,181.7 236.5,182.8 237.9,184.2C239.2,185.8 240.4,187.5 241.2,189.3Z" style="fill:rgb(211,170,0);fill-rule:nonzero;"/>
                            <path d="M231.9,46.2L218.4,159.6L213.6,112.7L221.3,49.4L221.5,47.9L231.9,46.2Z" style="fill:rgb(204,204,204);fill-rule:nonzero;"/>
                            <path d="M247.8,60.9L258.3,59.4L225.5,159.4L225.1,159.4L228.8,118.4L247.1,63.3L247.8,60.9Z" style="fill:rgb(204,204,204);fill-rule:nonzero;"/>
                            <path d="M289.4,269L299,279.9C298.9,280.2 298.7,280.5 298.6,280.8C298.3,281.4 298,282 297.7,282.6C297.5,282.9 297.4,283.2 297.2,283.5L240.6,225C242.5,223.3 244.1,221.3 245.4,219.2L248.8,223.1L289.4,269Z" style="fill:rgb(52,93,209);fill-rule:nonzero;"/>
                            <path d="M270.4,82L280.9,80.8L233.4,160.7C233,160.6 232.6,160.4 232.3,160.3L240.8,131.4L268.8,84.7L270.4,82Z" style="fill:rgb(204,204,204);fill-rule:nonzero;"/>
                            <path d="M181.3,2.8C188.3,1.3 195.4,0.4 202.5,0.3C213.6,0.1 224.7,1.8 235.3,5.1C245.9,8.4 256,13.3 265.2,19.4C274.5,25.5 282.9,32.8 290.5,40.9C300.6,51.7 309.2,63.8 316.4,76.8C325.4,93 332.1,110.4 336.8,128.3C342.4,149.8 345.2,172 345.2,194.2C345.2,216.4 342.5,238.6 336.9,260.1C332.2,278 325.6,295.5 316.7,311.7C309.6,324.7 301.1,336.9 291.2,347.8C283.7,356 275.4,363.4 266.2,369.7C257.1,376 247.1,381.1 236.6,384.7C226.1,388.3 215,390.3 203.9,390.4C194.8,390.5 185.7,389.4 176.8,387.2C174.9,386.7 173,386.2 171.1,385.6C160.5,382.3 150.4,377.4 141.2,371.3C131.9,365.2 123.5,357.9 115.9,349.8C105.7,339.1 97.1,327 89.9,314C80.9,297.8 74.2,280.4 69.5,262.5C63.9,241 61.1,218.8 61.1,196.6C61.1,174.4 63.8,152.2 69.4,130.7C74.1,112.8 80.7,95.3 89.6,79.1C96.7,66.1 105.2,53.9 115.1,43C122.6,34.8 130.9,27.4 140.1,21.1C149.2,14.8 159.2,9.7 169.7,6.1C173.6,4.7 177.4,3.6 181.3,2.8ZM209.6,41.8C202.5,41.9 195.4,43 188.6,44.9C187,45.3 185.5,45.8 184,46.3C181.8,47 179.7,47.9 177.6,48.8C176.5,49.3 175.4,49.8 174.2,50.3C171,51.8 167.9,53.6 164.9,55.4C163.5,56.3 162.1,57.2 160.8,58.1C157.2,60.6 153.7,63.4 150.4,66.3C149.4,67.2 148.4,68.1 147.4,69.1C145.3,71.1 143.2,73.2 141.2,75.4C140.9,75.7 140.6,76.1 140.3,76.4C135.5,81.8 131.2,87.6 127.3,93.6C126.5,94.9 125.6,96.2 124.9,97.5C123.7,99.6 122.5,101.6 121.3,103.7C121.1,104.1 120.8,104.6 120.6,105C116.5,112.7 113.1,120.7 110.2,128.9C109.6,130.5 109.1,132.1 108.6,133.7C108,135.6 107.4,137.5 106.9,139.4C106.4,141 106,142.6 105.6,144.3C103.4,152.7 101.8,161.2 100.7,169.8C100.5,171.5 100.3,173.3 100.1,175.1C100,175.8 100,176.6 99.9,177.3C99.3,183.6 99.1,189.8 99.1,196.1C99.1,200.9 99.3,205.7 99.6,210.5C99.6,211.2 99.7,212 99.8,212.7C99.9,214.5 100.1,216.2 100.3,218C101.4,228.1 103.1,238.1 105.7,247.9C105.8,248.1 105.8,248.3 105.9,248.5C106.4,250.4 107,252.4 107.5,254.3C108,255.9 108.5,257.5 109,259.1C111.7,267.4 115,275.5 118.9,283.3C119.8,285 120.7,286.8 121.6,288.5C122.1,289.3 122.5,290.2 123,291C123.8,292.3 124.6,293.7 125.4,295C129.2,301.2 133.4,307.1 138.1,312.5C139.3,313.9 140.6,315.3 141.9,316.7C143,317.8 144,318.9 145.1,320C146.1,321 147.1,321.9 148.1,322.9C152.4,326.8 156.9,330.5 161.8,333.7C162,333.8 162.2,334 162.5,334.1C165.5,336 168.6,337.8 171.8,339.4C172.9,340 174,340.5 175.1,341C178.4,342.5 181.9,343.8 185.4,344.9C185.6,345 185.8,345 186.1,345.1C194.2,347.6 202.7,348.8 211.2,348.7C219.9,348.6 228.6,347 236.9,344.2C245.2,341.4 253,337.3 260.1,332.3C267.3,327.3 273.8,321.5 279.7,315C287.5,306.4 294.2,296.8 299.7,286.5C306.6,273.7 311.8,260 315.5,245.9C319.9,229 322,211.6 322,194.1C322,176.7 319.9,159.2 315.4,142.3C311.7,128.2 306.5,114.5 299.4,101.8C293.8,91.6 287.1,82 279.1,73.5C273.1,67.1 266.5,61.4 259.2,56.6C251.9,51.8 244,47.9 235.7,45.3C227.1,42.9 218.3,41.6 209.6,41.8Z" style="fill:rgb(55,115,179);fill-rule:nonzero;"/>
                            <path d="M300.4,141.4L311,140.9L247.3,174.2C246.9,173.4 246.4,172.6 245.9,171.8L245.8,171.7L249.3,167.9L297.3,143L300.4,141.4Z" style="fill:rgb(204,204,204);fill-rule:nonzero;"/>
                            <path d="M299.2,109.4C299.5,110 299.8,110.6 300.1,111.2C300.2,111.5 300.4,111.8 300.5,112.1L290.7,122.8L249.4,167.8L245.9,171.6C244.6,169.5 243,167.4 241.2,165.7L298.8,108.5C298.9,108.8 299,109.1 299.2,109.4Z" style="fill:rgb(52,93,209);fill-rule:nonzero;"/>
                            <path d="M303.7,183L317.5,180.2C317.5,179.9 317.5,179.5 317.5,179.2C317.5,178.5 317.4,177.8 317.3,177.1C317.3,176.8 317.2,176.4 317.2,176.1L306.6,176.2L303.2,176.7C303,174.7 302.8,172.6 302.6,170.6C302.1,166.5 301.5,162.5 300.8,158.5C300.4,156.5 300,154.5 299.6,152.5L312,145.1C311.9,144.8 311.8,144.4 311.8,144.1C311.6,143.4 311.5,142.8 311.3,142.1C311.2,141.8 311.1,141.4 311,141.1L300.4,141.6L297.4,143.2C296.9,141.5 296.5,139.8 296,138.1C295,134.7 293.9,131.3 292.7,128C292.1,126.3 291.5,124.7 290.8,123L300.6,112.3C300.5,112 300.3,111.7 300.2,111.4C299.9,110.8 299.6,110.2 299.3,109.6C299.1,109.3 299,109 298.8,108.7L288.2,109.6L285.8,112C285.1,110.6 284.4,109.3 283.7,107.9C282.3,105.2 280.8,102.5 279.2,99.9C278.4,98.6 277.6,97.3 276.8,96L283.3,84C283.1,83.7 282.9,83.5 282.7,83.2C282.3,82.7 281.9,82.2 281.5,81.7C281.3,81.5 281.1,81.2 280.9,81L270.4,82L268.8,84.6C268,83.5 267.1,82.5 266.2,81.5C264.5,79.4 262.6,77.4 260.8,75.5C259.9,74.5 258.9,73.6 257.9,72.6L261.1,61.5C260.9,61.3 260.6,61.1 260.4,60.9C259.9,60.5 259.5,60.2 259,59.8C258.8,59.6 258.5,59.5 258.3,59.3L247.8,60.8L247,63.2C246,62.4 245,61.7 244,61C242,59.6 239.9,58.2 237.7,57C236.6,56.4 235.5,55.8 234.4,55.2L235.1,47.2C234.8,47.1 234.6,47 234.3,46.9C233.8,46.7 233.2,46.5 232.7,46.4C232.4,46.3 232.1,46.2 231.9,46.2L221.5,47.9L221.3,49.5C220.1,49.1 219,48.7 217.8,48.4C215.4,47.7 213,47.1 210.6,46.6C209.4,46.3 208.2,46.1 207,45.9L206.7,42.6C206.4,42.6 206.1,42.6 205.8,42.6C205.2,42.6 204.7,42.6 204.1,42.7C203.8,42.7 203.5,42.7 203.2,42.8L192.8,44.6L192.8,45C192.4,45 191.9,45 191.5,45C190.6,45 189.8,45.1 188.9,45.1C188.8,45.1 188.7,45.1 188.6,45.1C195.4,43.2 202.5,42.1 209.6,42C218.3,41.9 227.1,43.2 235.4,45.8C243.7,48.4 251.6,52.3 258.9,57.1C266.2,61.9 272.8,67.7 278.8,74C286.7,82.5 293.5,92.1 299.1,102.3C306.1,115 311.4,128.8 315.1,142.8C319.5,159.7 321.6,177.1 321.7,194.6C321.7,212 319.6,229.5 315.2,246.4C311.5,260.5 306.3,274.2 299.4,287C293.9,297.2 287.2,306.9 279.4,315.5C273.5,321.9 267,327.8 259.8,332.8C252.6,337.8 244.8,341.8 236.6,344.7C228.3,347.5 219.6,349.1 210.9,349.2C202.4,349.3 193.9,348.1 185.8,345.6C186,345.6 186.2,345.6 186.4,345.6C187.2,345.7 188.1,345.7 189,345.8C189.4,345.8 189.8,345.8 190.3,345.8L190.3,346.2L200.7,348.2C201,348.2 201.3,348.3 201.5,348.3C202.1,348.4 202.6,348.4 203.2,348.4C203.5,348.4 203.8,348.4 204.1,348.4L204.5,345C205.7,344.8 207,344.6 208.2,344.4C210.6,343.9 213.1,343.4 215.4,342.7C216.6,342.4 217.8,342 219,341.6L219.2,343.2L229.6,345.1C229.9,345 230.2,345 230.4,344.9C230.9,344.7 231.5,344.6 232,344.4C232.3,344.3 232.5,344.2 232.8,344.1L232.2,336.1C233.3,335.5 234.4,334.9 235.5,334.3C237.7,333.1 239.8,331.8 241.9,330.4C242.9,329.7 244,329 245,328.3L245.7,330.7L256.2,332.4C256.5,332.2 256.7,332.1 257,331.9C257.5,331.6 258,331.2 258.4,330.9C258.6,330.7 258.9,330.5 259.1,330.3L256.1,319.1C257.1,318.2 258.1,317.2 259,316.3C260.9,314.4 262.8,312.4 264.6,310.4C265.5,309.4 266.4,308.3 267.2,307.3L268.7,310L279.2,311.4C279.4,311.2 279.6,310.9 279.8,310.7C280.2,310.2 280.6,309.7 281,309.2C281.2,308.9 281.4,308.7 281.6,308.4L275.3,296.2C276.1,294.9 277,293.6 277.8,292.3C279.4,289.7 281,287 282.4,284.3C283.1,283 283.8,281.6 284.5,280.2L286.9,282.6L297.5,283.7C297.7,283.4 297.8,283.1 298,282.8C298.3,282.2 298.6,281.6 298.9,281C299,280.7 299.2,280.4 299.3,280.1L289.7,269.2C290.4,267.6 291,265.9 291.7,264.3C293,261 294.1,257.6 295.2,254.3C295.7,252.6 296.2,250.9 296.7,249.2L299.7,250.8L310.3,251.5C310.4,251.2 310.5,250.8 310.6,250.5C310.8,249.8 311,249.2 311.2,248.5C311.3,248.2 311.4,247.8 311.4,247.5L299.1,239.8C299.6,237.8 300,235.8 300.4,233.8C301.2,229.8 301.9,225.7 302.4,221.7C302.7,219.7 302.9,217.6 303.1,215.6L306.5,216.1L317.1,216.4C317.1,216.1 317.2,215.7 317.2,215.4C317.3,214.7 317.3,214 317.4,213.3C317.4,213 317.4,212.6 317.5,212.3L303.7,209.2C303.8,208 303.9,206.8 303.9,205.5C304,203.1 304.1,200.6 304.2,198.1L304.2,191.6C304.2,189.7 304.1,187.9 304,186C303.8,184.9 303.7,183.9 303.7,183Z" style="fill:rgb(211,170,0);fill-rule:nonzero;"/>
                            <path d="M298.8,239.6L311.1,247.3C311,247.6 310.9,248 310.9,248.3C310.7,249 310.5,249.6 310.3,250.3C310.2,250.6 310.1,251 310,251.3L246.9,216.8C248.2,214.4 249.2,211.9 250,209.3L298.8,239.6Z" style="fill:rgb(52,93,209);fill-rule:nonzero;"/>
                            <path d="M317.3,177C317.4,177.7 317.4,178.4 317.5,179.1C317.5,179.4 317.5,179.8 317.5,180.1L303.7,182.9L252,193.6C251.9,190.8 251.6,188 251,185.2L317.1,176C317.2,176.3 317.2,176.7 317.3,177Z" style="fill:rgb(52,93,209);fill-rule:nonzero;"/>
                            <path d="M311.2,141.9C311.4,142.6 311.6,143.2 311.7,143.9C311.8,144.2 311.9,144.6 311.9,144.9L299.5,152.3L250.2,181.8C249.5,179.2 248.5,176.7 247.2,174.3L310.9,141C311,141.2 311.1,141.5 311.2,141.9Z" style="fill:rgb(52,93,209);fill-rule:nonzero;"/>
                            <path d="M203.2,224.9C203.7,225.3 204.2,225.8 204.7,226.2L183.4,262.4L147.8,323C146.8,322.1 145.8,321.1 144.8,320.1L199.3,220.5C199.7,221 200.1,221.5 200.5,222C201.4,223.1 202.3,224 203.2,224.9Z" style="fill:rgb(52,93,209);fill-rule:nonzero;"/>
                            <path d="M174.1,50.3L205.3,163.9L184.7,127.4L164.8,55.4C167.8,53.6 170.9,51.8 174.1,50.3Z" style="fill:rgb(204,204,204);fill-rule:nonzero;"/>
                            <path d="M164.2,6.6L181.3,2.8C177.4,3.7 173.6,4.7 169.8,6C159.3,9.6 149.3,14.7 140.2,21C131,27.3 122.7,34.7 115.2,42.9C105.2,53.8 96.7,66 89.7,79C80.9,95.3 74.2,112.7 69.5,130.6C63.9,152.1 61.2,174.3 61.2,196.5C61.2,218.7 63.9,240.9 69.6,262.4C74.3,280.3 81,297.7 90,313.9C97.2,326.9 105.8,339 115.9,349.8C123.5,357.9 132,365.2 141.2,371.3C150.5,377.4 160.5,382.3 171.1,385.6C173,386.2 174.9,386.7 176.8,387.2L160.6,383.2L160.3,383.1C151.8,381 143.5,377.9 135.7,373.9C126.7,369.3 118.3,363.6 110.6,357.1C102.9,350.6 95.9,343.2 89.7,335.3C81.3,324.8 74.3,313.3 68.3,301.2C60.9,286.1 55.4,270.1 51.5,253.7C46.9,234 44.8,213.8 45,193.7C45.2,173.6 47.7,153.4 52.7,133.8C56.9,117.5 62.7,101.6 70.4,86.6C76.5,74.6 83.9,63.3 92.4,52.9C98.8,45.1 106,37.9 113.8,31.5C121.6,25.1 130.1,19.6 139.2,15.2C147.1,11.5 155.5,8.5 164.2,6.6Z" style="fill:rgb(211,170,0);fill-rule:nonzero;"/>
                            <path d="M198,115.9L211.7,160.6C211.1,160.8 210.6,161 210,161.2C208.9,161.7 207.8,162.2 206.8,162.9C206.3,163.2 205.8,163.6 205.3,163.9L174.1,50.3C175.2,49.8 176.3,49.3 177.5,48.8L198,115.9Z" style="fill:rgb(55,115,179);fill-rule:nonzero;"/>
                            <path d="M246.9,216.7L310,251.2L299.4,250.5L296.4,248.9L248.8,223L245.4,219.1C245.6,218.8 245.8,218.5 246,218.2C246.3,217.8 246.6,217.2 246.9,216.7Z" style="fill:rgb(204,204,204);fill-rule:nonzero;"/>
                            <path d="M183.5,262.3L204.8,226.1L171.4,339.5C168.2,337.9 165.1,336.1 162.1,334.2L183.5,262.3Z" style="fill:rgb(204,204,204);fill-rule:nonzero;"/>
                            <path d="M224.9,231.1L255.9,332L245.4,330.2L244.7,327.9L227.4,272.2L224.5,231.1L224.9,231.1Z" style="fill:rgb(204,204,204);fill-rule:nonzero;"/>
                            <path d="M288.1,109.4L298.7,108.5L241.1,165.7C240.6,165.2 240.1,164.8 239.6,164.3L247.9,148.9L285.8,111.7L288.1,109.4Z" style="fill:rgb(204,204,204);fill-rule:nonzero;"/>
                            <path d="M124.7,97.6L195.5,176.8L174.4,165L120.4,105.1C120.6,104.7 120.9,104.2 121.1,103.8C122.2,101.8 123.4,99.7 124.7,97.6Z" style="fill:rgb(204,204,204);fill-rule:nonzero;"/>
                            <path d="M176.5,145.1L199.8,169.4C199.4,170 199,170.5 198.6,171.1C197.8,172.3 197.1,173.5 196.4,174.8C196.1,175.4 195.8,176.1 195.5,176.7L124.7,97.5C125.5,96.2 126.3,94.9 127.1,93.6L176.5,145.1Z" style="fill:rgb(52,93,209);fill-rule:nonzero;"/>
                            <path d="M303.4,208.9L317.2,212C317.2,212.3 317.2,212.7 317.1,213C317,213.7 317,214.4 316.9,215.1C316.9,215.4 316.8,215.8 316.8,216.1L250.9,205.6C251.5,202.9 251.9,200 252,197.2L303.4,208.9Z" style="fill:rgb(52,93,209);fill-rule:nonzero;"/>
                            <path d="M220.4,230.2C221.8,230.7 223.3,230.9 224.9,231L224.5,231L217.8,230.6L217.8,230.5C217.4,230.5 217.1,230.5 216.7,230.5L216.4,230.5C216.3,230.5 216.2,230.5 216.1,230.5C215,230.4 213.8,230.2 212.7,230C212.2,229.9 211.6,229.7 211.1,229.5C210.5,229.3 210,229.1 209.4,228.8C208.3,228.3 207.3,227.7 206.3,227.1C205.8,226.8 205.3,226.4 204.8,226.1C204.3,225.7 203.8,225.3 203.3,224.8C202.3,223.9 201.4,223 200.6,222C200.2,221.5 199.8,221 199.4,220.5C199,219.9 198.6,219.3 198.2,218.7C197.4,217.5 196.7,216.3 196.1,215C195.8,214.4 195.5,213.7 195.2,213C194.9,212.3 194.6,211.6 194.4,210.9C193.9,209.5 193.5,208 193.1,206.5C192.9,205.8 192.8,205 192.6,204.3C192.4,203.5 192.3,202.7 192.2,202C192,200.4 191.8,198.9 191.8,197.3C191.8,196.5 191.8,195.7 191.8,194.9C191.8,194.1 191.8,193.3 191.9,192.5C192,190.9 192.2,189.4 192.4,187.8C192.5,187 192.7,186.2 192.8,185.5C193,184.8 193.1,184 193.3,183.3C193.7,181.8 194.1,180.4 194.7,178.9C195,178.2 195.3,177.5 195.6,176.8C195.9,176.1 196.2,175.5 196.5,174.9C197.1,173.6 197.9,172.4 198.7,171.2C199.1,170.6 199.5,170 199.9,169.5C200.3,169 200.7,168.5 201.1,168C202,167 202.9,166.1 203.9,165.2C204.4,164.8 204.9,164.4 205.4,164C205.9,163.6 206.4,163.3 206.9,163C207.9,162.4 209,161.8 210.1,161.3C210.7,161.1 211.2,160.9 211.8,160.7C212.3,160.5 212.9,160.4 213.4,160.2C214.5,159.9 215.6,159.8 216.8,159.7L218.5,159.7L225.2,159.5C224.9,159.5 224.6,159.6 224.3,159.6C220.9,160 217.7,161.4 214.9,163.3C211.5,165.6 208.9,168.8 206.8,172.2C204.7,175.7 203.2,179.5 202.2,183.4C201.2,187.3 200.7,191.4 200.7,195.5C200.7,199.6 201.2,203.6 202.2,207.6C203.2,211.5 204.7,215.3 206.9,218.8C208.7,221.7 210.9,224.3 213.5,226.5C215.5,228.1 217.9,229.4 220.4,230.2Z" style="fill:rgb(211,170,0);fill-rule:nonzero;"/>
                            <path d="M259.1,59.9C259.6,60.2 260.1,60.6 260.5,61C260.7,61.2 261,61.4 261.2,61.6L258,72.6L240.8,131.4L232.3,160.3C232.2,160.3 232.2,160.3 232.1,160.2C230,159.5 227.7,159.2 225.5,159.3L258.3,59.3C258.6,59.6 258.8,59.8 259.1,59.9Z" style="fill:rgb(55,115,179);fill-rule:nonzero;"/>
                            <path d="M192.2,202C192.3,202.8 192.4,203.6 192.6,204.3L178.1,206.5L174.5,207L99.9,218.1C99.7,216.3 99.6,214.6 99.4,212.8L191.7,194.8C191.7,195.6 191.7,196.4 191.7,197.2C191.8,198.8 191.9,200.4 192.2,202Z" style="fill:rgb(52,93,209);fill-rule:nonzero;"/>
                            <path d="M198.1,218.7C198.5,219.3 198.9,219.9 199.3,220.5L175.5,244.4L125.1,295C124.3,293.7 123.5,292.4 122.7,291L195.1,213C195.4,213.7 195.7,214.3 196,215C196.6,216.3 197.3,217.5 198.1,218.7Z" style="fill:rgb(52,93,209);fill-rule:nonzero;"/>
                            <path d="M178.1,206.5L192.6,204.3L107.2,254.4C106.6,252.5 106.1,250.6 105.6,248.6L175,208.3L178.1,206.5Z" style="fill:rgb(204,204,204);fill-rule:nonzero;"/>
                            <path d="M240.6,225L297.3,283.4L286.7,282.3L284.3,279.9L247,241.9L239,226.4C239.5,226 240.1,225.5 240.6,225Z" style="fill:rgb(204,204,204);fill-rule:nonzero;"/>
                            <path d="M213.6,112.7L218.3,159.6L217.1,159.6L216.9,159.6C216.8,159.6 216.7,159.6 216.6,159.6C215.5,159.7 214.3,159.8 213.2,160.1C212.6,160.2 212.1,160.4 211.6,160.6L203.1,42.5C203.4,42.5 203.7,42.4 204,42.4C204.6,42.4 205.1,42.3 205.7,42.3C206,42.3 206.3,42.3 206.6,42.3L206.9,45.6L213.6,112.7Z" style="fill:rgb(55,115,179);fill-rule:nonzero;"/>
                            <path d="M211,229.6L196.5,274.2L174.7,341.2C173.6,340.7 172.5,340.2 171.4,339.6L204.8,226.2C205.3,226.6 205.8,226.9 206.3,227.2C207.3,227.9 208.3,228.4 209.4,228.9C209.9,229.2 210.5,229.4 211,229.6Z" style="fill:rgb(52,93,209);fill-rule:nonzero;"/>
                            <path d="M147.3,69.1L199.8,169.4L176.5,145.1L140.2,76.4C140.5,76 140.8,75.7 141.1,75.4C143.1,73.2 145.1,71.1 147.3,69.1Z" style="fill:rgb(204,204,204);fill-rule:nonzero;"/>
                            <path d="M178.4,183.1L192.8,185.5C192.6,186.3 192.5,187 192.4,187.8C192.2,189.4 192,190.9 191.9,192.5C191.9,193.3 191.8,194.1 191.8,194.9L99.9,175.2C100.1,173.4 100.3,171.7 100.5,169.9L174.8,182.4L178.4,183.1Z" style="fill:rgb(52,93,209);fill-rule:nonzero;"/>
                            <path d="M217.7,230.7L229.2,344.8L218.8,342.9L218.6,341.3L212.1,277.6L217.7,230.7Z" style="fill:rgb(204,204,204);fill-rule:nonzero;"/>
                            <path d="M275,295.8L281.3,308C281.1,308.3 280.9,308.5 280.7,308.8C280.3,309.3 279.9,309.8 279.5,310.3C279.3,310.5 279.1,310.8 278.9,311L232.8,230C234.6,229.3 236.2,228.4 237.8,227.4C238.2,227.1 238.6,226.8 239,226.5L247,242L275,295.8Z" style="fill:rgb(52,93,209);fill-rule:nonzero;"/>
                            <path d="M235.2,47.3L234.5,55.3L228.8,118.5L225.1,159.5L218.4,159.7L232,46.3C232.3,46.4 232.6,46.4 232.8,46.5C233.3,46.7 233.9,46.8 234.4,47C234.6,47 234.9,47.1 235.2,47.3Z" style="fill:rgb(55,115,179);fill-rule:nonzero;"/>
                            <path d="M281.6,81.5C282,82 282.4,82.5 282.8,83C283,83.3 283.2,83.5 283.4,83.8L276.9,95.8L247.9,149L239.6,164.4C239.5,164.3 239.4,164.2 239.3,164.2C237.5,162.8 235.6,161.6 233.5,160.8L281,80.9C281.1,81 281.4,81.3 281.6,81.5Z" style="fill:rgb(55,115,179);fill-rule:nonzero;"/>
                            <path d="M255.8,318.7L258.8,329.9C258.6,330.1 258.3,330.3 258.1,330.5C257.6,330.9 257.1,331.2 256.7,331.5C256.5,331.7 256.2,331.8 255.9,332L224.8,231.1C226,231.2 227.2,231.2 228.3,231C229.4,230.9 230.5,230.6 231.6,230.3L239.5,259.4L255.8,318.7Z" style="fill:rgb(52,93,209);fill-rule:nonzero;"/>
                            <path d="M174.4,165.1L195.5,176.9C195.2,177.6 194.9,178.3 194.6,179C194.1,180.4 193.6,181.9 193.2,183.4C193,184.1 192.8,184.9 192.7,185.6L108.3,134C108.8,132.4 109.3,130.8 109.9,129.2L174.4,165.1Z" style="fill:rgb(52,93,209);fill-rule:nonzero;"/>
                            <path d="M231.9,335.7L232.5,343.7C232.2,343.8 232,343.9 231.7,344C231.2,344.2 230.6,344.4 230.1,344.5C229.8,344.6 229.5,344.6 229.3,344.7L217.8,230.6L224.5,231L227.4,272.1L231.9,335.7Z" style="fill:rgb(52,93,209);fill-rule:nonzero;"/>
                            <path d="M217.7,230.7L212.1,277.6L204.1,344.7L203.7,348.1C203.4,348.1 203.1,348.1 202.8,348.1C202.2,348.1 201.7,348.1 201.1,348C200.8,348 200.5,347.9 200.3,347.9L211,229.6C211.5,229.8 212.1,229.9 212.6,230.1C213.7,230.4 214.8,230.6 216,230.6L216.6,230.6L217.7,230.7Z" style="fill:rgb(52,93,209);fill-rule:nonzero;"/>
                            <path d="M194.3,210.9C194.6,211.6 194.8,212.3 195.1,213L173.8,224.4L108.6,259.2C108.1,257.6 107.6,256 107.1,254.4L192.5,204.3C192.6,205.1 192.8,205.8 193,206.5C193.4,208 193.8,209.5 194.3,210.9Z" style="fill:rgb(52,93,209);fill-rule:nonzero;"/>
                            <path d="M175.5,244.5L199.3,220.6L144.8,320.2C143.7,319.1 142.6,318 141.6,316.9C140.3,315.5 139.1,314.1 137.8,312.7L175.5,244.5Z" style="fill:rgb(204,204,204);fill-rule:nonzero;"/>
                            <path d="M250.9,205.7L316.8,216.2L306.2,215.9L302.8,215.4L250.5,207.2C250.7,206.6 250.8,206.2 250.9,205.7Z" style="fill:rgb(204,204,204);fill-rule:nonzero;"/>
                            <path d="M108.3,133.9L192.7,185.5L178.3,183.1L175.1,181.1L106.6,139.6C107.2,137.7 107.7,135.8 108.3,133.9Z" style="fill:rgb(204,204,204);fill-rule:nonzero;"/>
                            <path d="M211,229.6L200.3,347.9L190,345.9L190,345.5L196.5,274.2L211,229.6Z" style="fill:rgb(204,204,204);fill-rule:nonzero;"/>
                            <path d="M203.2,42.5L211.7,160.6L198,115.9L192.8,44.7L192.8,44.3L203.2,42.5Z" style="fill:rgb(204,204,204);fill-rule:nonzero;"/>
                        </g>
                    </g>
                </g>
                <g transform="matrix(0.239474,0,0,0.133844,595.016,107.369)">
                    <rect x="0" y="0.3" width="390.2" height="390.2" style="fill:none;"/>
                </g>
            </g>
        </g>
    </g>
</svg>
