<svg xmlns="http://www.w3.org/2000/svg" viewBox="0 0 15 15"><defs><style>.cls-1{fill:#cd2028;}.cls-2{fill:#fff;}</style></defs><title>error exclamation</title><g id="Layer_2" data-name="Layer 2"><g id="Layer_1-2" data-name="Layer 1"><g id="add_product" data-name="add product"><circle class="cls-1" cx="7.5" cy="7.5" r="7.2"/><path class="cls-2" d="M7.5,15A7.55,7.55,0,0,1,0,7.5,7.55,7.55,0,0,1,7.5,0,7.55,7.55,0,0,1,15,7.5,7.55,7.55,0,0,1,7.5,15ZM7.5.5a7,7,0,0,0-7,7,7,7,0,0,0,7,7,7,7,0,0,0,0-14Z"/><rect class="cls-2" x="7" y="3.5" width="1" height="4.5"/><rect class="cls-2" x="7" y="9.7" width="1" height="1.4"/></g></g></g></svg>